# xmcd
#
# Track frame offsets:
#	150
#	20937
#	44332
#	64653
#	79689
#	95992
#	107733
#	121889
#	141253
#	168140
#	188653
#	198619
#	208491
#	222902
#
# Disc length: 3419 seconds
#
# Revision: 1
# Processed by: cddbd v1.5.2PL0 Copyright (c) Steve Scherf et al.
# Submitted via: audiograbber 1.83.01
#
DISCID=d60d590e
DTITLE=Buddy Guy and Junior Wells - Everyday I Have The Blues
DYEAR=2000
DGENRE=Blues
TTITLE0=Buddy's Blues
TTITLE1=Stormy Monday
TTITLE2=Everyday I Have The Blues
TTITLE3=Woman Blues
TTITLE4=(I Can Get No) Satisfaction
TTITLE5=Messin' With The Kid
TTITLE6=No Use Cryin'
TTITLE7=Just To Be With You
TTITLE8=Out Of Sight
TTITLE9=Junior's Shuffle
TTITLE10=First Time I Met The Blues
TTITLE11=Slop Around
TTITLE12=Broken Hearted Blues
TTITLE13=Stone Crazy
EXTD=
EXTT0=
EXTT1=
EXTT2=
EXTT3=
EXTT4=
EXTT5=
EXTT6=
EXTT7=
EXTT8=
EXTT9=
EXTT10=
EXTT11=
EXTT12=
EXTT13=
PLAYORDER=
